<svg xmlns="http://www.w3.org/2000/svg" width="105" height="40" fill="none"><path fill="#425893" d="M0 0h105v40H0z"/><path fill="#fff" d="M43.324 25h-1.49v-7.14h4.09v1.24h-2.6v1.84h2.42v1.24h-2.42zm6.118-5.57q1.1 0 1.68.48.59.47.59 1.45V25h-1.04l-.29-.74h-.04a2.7 2.7 0 0 1-.48.48q-.24.19-.56.27-.31.09-.77.09-.48 0-.87-.18a1.4 1.4 0 0 1-.6-.57q-.22-.39-.22-.98 0-.87.61-1.28.61-.42 1.83-.46l.95-.03v-.24q0-.43-.23-.63-.22-.2-.62-.2t-.78.12a6 6 0 0 0-.76.28l-.49-1.01q.44-.23.97-.36.54-.13 1.12-.13m.21 3.06q-.72.02-1 .26a.79.79 0 0 0-.28.63q0 .34.2.49.2.14.52.14.48 0 .81-.28.33-.29.33-.81v-.45zm5.805 2.61q-.81 0-1.38-.29-.57-.3-.87-.92t-.3-1.59q0-1 .34-1.63t.94-.93q.61-.3 1.4-.3a3.8 3.8 0 0 1 1.7.37l-.44 1.15a7 7 0 0 0-.66-.23q-.3-.09-.6-.09-.39 0-.65.19-.26.18-.39.55-.12.36-.12.91 0 .54.13.9.14.35.4.53.261.17.63.17.47 0 .83-.12.36-.13.7-.35v1.27q-.339.22-.72.31-.37.1-.94.1m5.167-5.66q.76 0 1.3.29.55.29.85.84t.3 1.35v.72h-3.52q.02.63.37.99.36.36.99.36.53 0 .96-.1a5 5 0 0 0 .89-.33v1.15a3.4 3.4 0 0 1-.85.29q-.44.1-1.07.1-.82 0-1.45-.3a2.3 2.3 0 0 1-.99-.93q-.36-.62-.36-1.56 0-.96.32-1.59.33-.64.91-.96t1.35-.32m.01 1.06a1 1 0 0 0-.72.28q-.28.28-.33.87h2.09q0-.33-.12-.59a.9.9 0 0 0-.34-.41q-.23-.15-.58-.15m5.138-1.33q0 .31-.02.61t-.04.47h.06q.22-.34.59-.57.37-.24.96-.24.92 0 1.49.72.57.71.57 2.1 0 .93-.27 1.57-.26.63-.73.95t-1.1.32q-.6 0-.95-.21a2.4 2.4 0 0 1-.56-.49h-.1l-.25.6h-1.14v-7.6h1.49zm1.07 1.46q-.39 0-.62.16a.93.93 0 0 0-.34.49 3 3 0 0 0-.11.81v.16q0 .79.23 1.22.24.42.86.42.46 0 .73-.42.27-.43.27-1.23t-.28-1.2q-.27-.41-.74-.41m8.728 1.63q0 .68-.19 1.21-.18.53-.53.9-.34.36-.83.55-.489.18-1.11.18-.57 0-1.06-.18a2.35 2.35 0 0 1-.83-.55 2.7 2.7 0 0 1-.55-.9 3.6 3.6 0 0 1-.19-1.21q0-.91.32-1.53.32-.63.92-.96t1.42-.33q.77 0 1.36.33t.93.96q.34.62.34 1.53m-3.77 0q0 .54.11.91.12.36.37.55.25.18.65.18t.64-.18q.25-.19.36-.55.12-.37.12-.91t-.12-.9q-.11-.36-.36-.54t-.65-.18q-.59 0-.86.41-.26.4-.26 1.21m9.962 0q0 .68-.19 1.21-.18.53-.53.9-.34.36-.83.55-.49.18-1.11.18-.57 0-1.06-.18a2.35 2.35 0 0 1-.83-.55 2.7 2.7 0 0 1-.55-.9 3.6 3.6 0 0 1-.19-1.21q0-.91.32-1.53.32-.63.92-.96t1.42-.33q.77 0 1.36.33t.93.96q.34.62.34 1.53m-3.77 0q0 .54.11.91.12.36.37.55.25.18.65.18t.64-.18q.249-.19.36-.55.12-.37.12-.91t-.12-.9q-.111-.36-.36-.54-.25-.18-.65-.18-.59 0-.86.41-.26.4-.26 1.21m6.491-1.46q0 .31-.03.62-.02.3-.05.61h.02l.2-.28.22-.28q.11-.14.23-.27l1.53-1.66h1.68l-2.17 2.37 2.3 3.09h-1.72l-1.57-2.21-.64.51V25h-1.49v-7.6h1.49zM27.446 21.74l.58-3.777H24.4v-2.451c0-1.034.507-2.04 2.13-2.04h1.648v-3.217S26.683 10 25.254 10c-2.985 0-4.936 1.809-4.936 5.084v2.879H17v3.777h3.318v9.132c.74.03 3.394 0 4.083 0V21.74z"/></svg>