<svg xmlns="http://www.w3.org/2000/svg" width="65" height="40" fill="none"><path fill="#4EACD5" d="M0 0h65v40H0z"/><path fill="#fff" d="M34.243 20.535q-.84-.94-2.34-1.055c.89-.242 1.536-.596 1.944-1.07q.61-.703.609-1.902c0-.632-.138-1.191-.406-1.675a3 3 0 0 0-1.188-1.152q-.68-.375-1.622-.53-.945-.15-3.323-.151H24.06v14.067h3.974q2.395 0 3.451-.162 1.055-.168 1.772-.552a3.25 3.25 0 0 0 1.356-1.326q.475-.856.474-1.985 0-1.568-.844-2.507m-6.622-4.416h.824q1.426 0 1.92.32.49.323.492 1.115-.001.763-.526 1.077-.53.31-1.944.31h-.766zm3.266 8.067c-.374.23-1.02.343-1.926.343h-1.34v-3.074h1.398c.93 0 1.573.117 1.915.351q.52.35.519 1.24 0 .796-.566 1.14M39.159 23.503a1.781 1.781 0 1 0-.002 3.563 1.781 1.781 0 0 0 .002-3.563M37.611 13h3.095v9.378h-3.095z"/></svg>