<svg xmlns="http://www.w3.org/2000/svg" width="93" height="40" fill="none"><path fill="#4EACD5" d="M0 0h93v40H0z"/><path fill="#fff" d="M49.952 25h-1.51v-3.08h-2.83V25h-1.51v-7.14h1.51v2.8h2.83v-2.8h1.51zm3.917-5.57q1.1 0 1.68.48.59.47.59 1.45V25h-1.04l-.29-.74h-.04a2.7 2.7 0 0 1-.48.48q-.24.19-.56.27-.31.09-.77.09-.48 0-.87-.18a1.4 1.4 0 0 1-.6-.57q-.22-.39-.22-.98 0-.87.61-1.28.609-.42 1.83-.46l.95-.03v-.24q0-.43-.23-.63-.22-.2-.62-.2t-.78.12a6 6 0 0 0-.76.28l-.49-1.01q.44-.23.97-.36.54-.13 1.12-.13m.21 3.06q-.72.02-1 .26a.79.79 0 0 0-.28.63q0 .34.2.49.2.14.52.14.48 0 .81-.28.33-.29.33-.81v-.45zm5.885 1.42q.25 0 .48-.05t.46-.12v1.11q-.24.1-.6.17a3.5 3.5 0 0 1-.77.08 2.3 2.3 0 0 1-.88-.16 1.28 1.28 0 0 1-.61-.55q-.22-.4-.22-1.1v-2.63h-.71v-.63l.82-.5.43-1.15h.95v1.16h1.53v1.12h-1.53v2.63q0 .31.18.47.18.15.47.15m4.286-4.47q.76 0 1.3.29.55.29.85.84t.3 1.35v.72h-3.52q.02.63.37.99.36.36.99.36.53 0 .96-.1.43-.11.89-.33v1.15a3.4 3.4 0 0 1-.85.29q-.44.1-1.07.1-.82 0-1.45-.3a2.3 2.3 0 0 1-.99-.93q-.36-.62-.36-1.56 0-.96.32-1.59.33-.64.91-.96.579-.32 1.35-.32m.01 1.06a1 1 0 0 0-.72.28q-.28.28-.33.87h2.09q0-.33-.12-.59a.9.9 0 0 0-.34-.41q-.23-.15-.58-.15m6.748-1.06q.88 0 1.41.48.53.47.53 1.52V25h-1.49v-3.19q0-.59-.21-.88-.21-.3-.67-.3-.68 0-.93.47-.25.46-.25 1.33V25h-1.49v-5.46h1.14l.2.7h.08q.18-.28.44-.45.26-.18.58-.26.32-.09.66-.09m5.712-.01q1.1 0 1.68.48.59.47.59 1.45V25h-1.04l-.29-.74h-.04a2.7 2.7 0 0 1-.48.48 1.5 1.5 0 0 1-.56.27q-.31.09-.77.09-.48 0-.87-.18a1.4 1.4 0 0 1-.6-.57q-.22-.39-.22-.98 0-.87.61-1.28.61-.42 1.83-.46l.95-.03v-.24q0-.43-.23-.63-.22-.2-.62-.2-.399 0-.78.12a6 6 0 0 0-.76.28l-.49-1.01q.44-.23.97-.36.54-.13 1.12-.13m.21 3.06q-.72.02-1 .26a.79.79 0 0 0-.28.63q0 .34.2.49.2.14.52.14.48 0 .81-.28.33-.29.33-.81v-.45zM25.184 20.535q-.84-.94-2.34-1.055c.89-.242 1.535-.596 1.944-1.07q.61-.703.608-1.902c0-.632-.138-1.191-.406-1.675a3 3 0 0 0-1.188-1.152q-.68-.375-1.621-.53c-.632-.1-1.737-.151-3.324-.151H15v14.067h3.974q2.395 0 3.452-.162 1.054-.168 1.771-.552a3.25 3.25 0 0 0 1.356-1.326q.475-.856.474-1.985 0-1.568-.843-2.507m-6.622-4.416h.823q1.427 0 1.92.32.49.323.492 1.115 0 .763-.526 1.077c-.354.206-.999.31-1.944.31h-.765zm3.266 8.067c-.375.23-1.02.343-1.926.343h-1.34v-3.074h1.398c.93 0 1.573.117 1.915.351q.52.35.518 1.24.001.796-.565 1.14M30.1 23.504a1.781 1.781 0 1 0-.002 3.562 1.781 1.781 0 0 0 .002-3.562M28.552 13h3.095v9.378h-3.095z"/></svg>