<svg xmlns="http://www.w3.org/2000/svg" width="23" height="19" fill="none"><path fill="#fff" d="M7.034 18.438c8.441 0 13.057-6.993 13.057-13.057q0-.299-.013-.594a9.3 9.3 0 0 0 2.29-2.376 9.2 9.2 0 0 1-2.636.723A4.6 4.6 0 0 0 21.75.595a9.2 9.2 0 0 1-2.914 1.114 4.59 4.59 0 0 0-7.82 4.185A13.03 13.03 0 0 1 1.556 1.1a4.6 4.6 0 0 0-.62 2.306c0 1.592.81 2.998 2.041 3.82A4.56 4.56 0 0 1 .9 6.652l-.001.059A4.59 4.59 0 0 0 4.58 11.21a4.6 4.6 0 0 1-2.073.078 4.59 4.59 0 0 0 4.287 3.188 9.2 9.2 0 0 1-5.7 1.964q-.555 0-1.094-.064a13 13 0 0 0 7.034 2.062"/></svg>