<svg xmlns="http://www.w3.org/2000/svg" width="65" height="40" fill="none"><path fill="#52B534" d="M0 0h65v40H0z"/><path fill="#fff" d="M42.315 18.243c0-4.545-4.557-8.243-10.158-8.243S22 13.698 22 18.243c0 4.075 3.614 7.487 8.495 8.132.33.072.78.218.895.501.102.257.067.66.032.919l-.145.87c-.044.256-.204 1.004.88.547s5.85-3.445 7.981-5.898c1.472-1.614 2.177-3.252 2.177-5.071"/><path fill="#00B900" d="M30.094 16.046h-.713a.2.2 0 0 0-.198.198v4.426c0 .109.089.197.198.197h.713c.109 0 .197-.088.197-.197v-4.426a.2.2 0 0 0-.197-.198M34.998 16.046h-.713a.2.2 0 0 0-.198.198v2.63l-2.028-2.74-.015-.02-.002-.001-.012-.012-.003-.004-.01-.009-.006-.004-.01-.007-.006-.003-.01-.006-.007-.003-.011-.005-.007-.002-.011-.004-.007-.002-.012-.002-.008-.002h-.01l-.01-.001h-.72a.2.2 0 0 0-.198.197v4.426c0 .109.089.197.198.197h.712c.11 0 .198-.088.198-.197V18.04l2.031 2.743a.2.2 0 0 0 .05.049h.002l.012.008.006.003.01.005.01.004.005.002.014.005h.002a.2.2 0 0 0 .051.007h.713c.109 0 .198-.088.198-.197v-4.426a.2.2 0 0 0-.198-.198M28.376 19.76H26.44v-3.516a.2.2 0 0 0-.198-.198h-.712a.2.2 0 0 0-.198.198v4.426c0 .053.021.1.055.136l.003.003.003.003a.2.2 0 0 0 .137.055h2.846c.11 0 .198-.088.198-.197v-.713a.2.2 0 0 0-.198-.198M38.932 17.155a.2.2 0 0 0 .197-.198v-.713a.2.2 0 0 0-.197-.198h-2.846a.2.2 0 0 0-.138.056l-.002.002-.003.004a.2.2 0 0 0-.055.136v4.425c0 .053.021.102.055.137l.003.003.003.003a.2.2 0 0 0 .137.055h2.846a.197.197 0 0 0 .197-.198v-.712a.2.2 0 0 0-.197-.198h-1.936v-.748h1.936a.2.2 0 0 0 .197-.198V18.1a.2.2 0 0 0-.197-.198h-1.936v-.748z"/></svg>