<svg xmlns="http://www.w3.org/2000/svg" width="81" height="40" fill="none"><path fill="#52B534" d="M0 0h81v40H0z"/><path fill="#fff" d="M43.993 25v-7.14h1.51v5.89h2.9V25zm8.325 0h-3.25v-.86l.87-.4v-4.62l-.87-.4v-.86h3.25v.86l-.87.4v4.62l.87.4zm7.546 0h-1.92l-3.11-5.4h-.04l.04 1.02q.021.25.03.51l.02.51V25h-1.35v-7.14h1.91l3.1 5.35h.03l-.04-.98q0-.25-.01-.49l-.02-.5v-3.38h1.36zm5.915 0h-4.11v-7.14h4.11v1.24h-2.6v1.57h2.42v1.24h-2.42v1.84h2.6zM34.315 18.243c0-4.545-4.557-8.243-10.158-8.243S14 13.698 14 18.243c0 4.075 3.614 7.487 8.495 8.132.33.072.78.218.895.501.102.257.067.66.032.919l-.145.87c-.044.256-.204 1.004.88.547s5.85-3.445 7.981-5.898c1.472-1.614 2.177-3.252 2.177-5.071"/><path fill="#00B900" d="M22.094 16.047h-.713a.2.2 0 0 0-.198.197v4.426c0 .11.089.197.198.197h.712a.2.2 0 0 0 .198-.197v-4.426a.2.2 0 0 0-.198-.197M26.998 16.047h-.713a.2.2 0 0 0-.198.197v2.63l-2.028-2.74-.015-.02h-.002l-.012-.013-.003-.003-.01-.01-.006-.003-.01-.007-.006-.004-.01-.006-.007-.003-.011-.005-.007-.002-.012-.004-.006-.002-.012-.002-.008-.001-.01-.001-.011-.001h-.719a.2.2 0 0 0-.198.197v4.426c0 .11.089.197.198.197h.712c.11 0 .198-.088.198-.197v-2.629l2.03 2.743a.2.2 0 0 0 .051.049l.002.001.012.008.006.003.01.004.01.005.005.002.013.004h.003a.2.2 0 0 0 .05.007h.713c.11 0 .198-.088.198-.197v-4.426a.2.2 0 0 0-.198-.197M20.376 19.76H18.44v-3.516a.2.2 0 0 0-.198-.198h-.712a.2.2 0 0 0-.198.198v4.426c0 .053.021.101.055.136l.003.004.003.002a.2.2 0 0 0 .137.055h2.846c.11 0 .197-.088.197-.197v-.713a.2.2 0 0 0-.197-.198M30.932 17.155a.2.2 0 0 0 .197-.198v-.713a.2.2 0 0 0-.197-.197h-2.846a.2.2 0 0 0-.138.055l-.002.003-.004.003a.2.2 0 0 0-.054.136v4.426q.001.081.055.136l.003.004.003.002a.2.2 0 0 0 .136.055h2.847a.2.2 0 0 0 .197-.197v-.713a.2.2 0 0 0-.197-.198h-1.936v-.748h1.936a.2.2 0 0 0 .197-.198v-.712a.2.2 0 0 0-.197-.198h-1.936v-.748z"/></svg>