<svg xmlns="http://www.w3.org/2000/svg" width="209" height="32" fill="none"><path fill="#CB0000" d="M20.133 22.289c-.368-.826-1.32-1.27-2.452-1.147-1.08.118-2.005.576-2.785 1.316-.973.924-1.118 1.738-.56 2.94-.915.398-1.676.11-2.286-.814-.56-.849-1.085-1.737-1.753-2.495-.373-.423-.768-.795-2.335-1.581a7 7 0 0 0-.253-.371c-.353-.48-.72-.96-.988-1.489-.588-1.157-.255-2.175.931-2.675.676-.284 1.444-.344 2.156-.554.326-.097.765-.234.898-.487.509-.971.914-1.998 1.43-3.169-3.286-.072-5.468 1.174-6.498 4.304-.726-2.044-.219-3.938 1.346-5.295 1.65-1.431 3.666-1.935 5.76-2.256.368-.057.91-.19 1.033-.447 1.227-2.585 2.383-5.204 3.585-7.87-.267-.083-.402-.155-.54-.163-3.599-.206-7 .457-10.068 2.42C1.33 5.924.19 11.716 3.942 16.947c.842 1.174 1.91 2.19 2.913 3.242 1.092 1.146 1.25 2.297.402 3.445-1.496-1.162-2.675-1.222-4.275-.162-1.281.849-2.214 1.99-2.725 3.456-.535 1.538-.22 3.007.811 3.784 1.101.83 2.478.775 3.847-.211 2.002-1.443 3.15-3.457 3.742-5.81.119-.473.173-.934.17-1.385l.015.042c.516-.14 1.042-.37 2.178.9.277.31.588.593.86.909.78.907 1.76 1.385 2.958 1.36 1.697-.034 3.25-.5 4.548-1.64.887-.778 1.14-1.708.747-2.59"/><path fill="#000" d="M32.105 11.53c-.104-.299-.182-.52-.312-.845a3.3 3.3 0 0 0-.455-.832 9 9 0 0 1 1.573-.143c.182 0 .286.104.286.234 0 .078-.026.17-.026.247 0 .117.026.247.052.39.09.338.13.455.208.676a20 20 0 0 0 2.652-.689c.117-.052.182-.039.22.065.079.247.17.611.222.871.026.13-.065.208-.156.234-.871.273-1.664.468-2.548.663.117.325.286.728.455 1.092a15 15 0 0 0 2.366-.676c.13-.065.195-.039.234.078.117.3.169.546.234.858.026.117.026.182-.104.234a16 16 0 0 1-2.197.637c.559.936 1.066 1.664 1.703 2.25.13.116.13.168.065.311a3.8 3.8 0 0 1-.533.806c-.078.091-.13.13-.208.13-.052 0-.104-.026-.182-.078-.208-.169-.468-.286-.767-.416-.663-.286-1.521-.416-2.444-.416-1.222 0-1.937.377-1.937.988 0 .845 1.105 1.118 3.094 1.118.48 0 .962-.052 1.43-.078.13 0 .169.065.156.17-.052.324-.143.831-.26 1.182-.04.13-.091.182-.273.195q-.45.04-.936.04c-2.99 0-4.576-.846-4.576-2.445 0-1.39 1.196-2.262 3.224-2.262.949 0 1.716.104 2.236.325-.3-.35-.728-.975-1.08-1.534-1.338.208-2.612.364-3.561.39-.143 0-.195-.052-.234-.182a6.6 6.6 0 0 1-.234-1.066c1.3-.026 2.34-.13 3.497-.325-.13-.273-.325-.715-.494-1.079-1.196.182-2.158.3-3.16.312-.155 0-.233-.052-.26-.182-.038-.143-.13-.624-.207-1.04a23 23 0 0 0 3.237-.208m13.234.507c.507-.09 1.209-.26 1.846-.442.143-.039.195.026.208.13.039.286.078.663.09.936.014.17-.025.208-.194.247a21 21 0 0 1-2.262.494c-.884 2.886-1.547 4.875-2.38 7.033-.064.182-.142.17-.285.13-.13-.052-.767-.325-1.04-.48-.104-.066-.143-.17-.104-.26.988-2.276 1.612-3.992 2.249-6.163-.754.078-1.664.143-2.275.143-.195 0-.247-.039-.273-.208a28 28 0 0 1-.182-1.183c.273.04.429.04.962.04.65 0 1.352-.04 2.106-.13.13-.52.234-1.093.325-1.626.052-.39.078-.78.078-1.196.689.104 1.222.195 1.638.364.104.04.143.13.143.208 0 .052 0 .117-.065.208-.104.182-.208.312-.273.52-.13.468-.221.91-.312 1.235m.234 5.967c.403-.104.936-.195 1.105-.195.13 0 .182.052.195.182.104.95.74 1.222 1.989 1.222.728 0 1.664-.117 2.184-.182.104-.013.143.013.156.117.052.338.104.78.104 1.131.013.156 0 .195-.208.208-.442.065-1.287.143-1.768.143-1.703 0-2.587-.234-3.172-.845-.416-.416-.56-1.027-.585-1.78m1.014-2.457a26 26 0 0 1-.052-1.183c0-.182.039-.22.234-.26.819-.169 1.78-.299 2.535-.299.507 0 1.066.052 1.52.13.183.026.222.04.222.195.026.325.026.69.013 1.04 0 .221-.065.273-.247.234a8.7 8.7 0 0 0-1.612-.156c-.78 0-1.768.13-2.613.3m9.828-3.744v-1.157c0-.338-.04-.715-.156-1.066.663.052 1.183.117 1.547.221.169.04.273.117.273.221 0 .078-.026.156-.104.3-.065.13-.091.26-.104.441-.013.247-.013.455-.026.871a20 20 0 0 0 1.794-.35c.22-.053.234-.014.247.155.039.325.065.624.065.936 0 .156-.052.182-.156.208-.585.143-1.21.247-2.015.351-.04.936-.052 1.43-.078 2.34.078.234.117.507.117.871 0 .676-.182 1.274-.624 1.69a1.6 1.6 0 0 0-.182.78c0 .507.26.845 1.703.845 1.976 0 2.99-.494 2.99-1.534 0-.507-.052-.988-.273-1.716.572.26.962.325 1.313.377a.32.32 0 0 1 .26.234c.104.351.195.832.195 1.43 0 1.638-1.313 2.561-4.303 2.561-2.301 0-3.29-.585-3.29-1.846 0-.377.053-.61.13-.858-.051.013-.13.013-.207.013-.897 0-1.56-.845-1.56-1.872 0-1.157.767-2.04 1.729-2.04.312 0 .507.038.689.103.013-.429.026-.832.026-1.26-.82.038-1.534.038-2.171.025-.117 0-.156-.052-.17-.195-.038-.26-.077-.637-.116-1.092.819.065 1.443.052 2.457.013m-.611 3.471c-.468 0-.715.364-.715.884 0 .546.273.871.754.858.403-.013.676-.377.663-.949 0-.48-.26-.793-.702-.793m5.447-2.262c.325-.377.65-.728.832-.91.104-.104.156-.104.273-.052.91.403 1.898 1.17 2.457 1.781.052.052.065.091.065.13s-.026.091-.065.143a6.5 6.5 0 0 1-.741.897c-.052.052-.091.078-.143.078-.04 0-.091-.039-.143-.104-.598-.715-1.482-1.443-2.535-1.963m8.229-2.418c.312-.468.559-.806.767-1.014.065-.065.143-.104.247-.065a8.5 8.5 0 0 1 2.548 1.547c.065.052.09.091.09.143 0 .04-.025.091-.064.156-.17.273-.442.65-.663.91-.052.065-.104.104-.143.104-.052 0-.091-.026-.156-.09a10.4 10.4 0 0 0-2.626-1.69m-.91 1.807c.507.143 1.053.3 1.352.468.143.065.208.143.208.247 0 .065-.026.13-.065.195a2.4 2.4 0 0 0-.26.69c-.13.662-.26 1.624-.312 2.365 1.196-1.209 2.756-2.054 4.342-2.054 1.898 0 3.029 1.105 3.029 2.782 0 1.417-.845 2.353-1.963 2.912-.871.442-2.21.754-3.328.897-.286.04-.403.026-.52-.169-.247-.442-.481-.793-.884-1.105 1.456-.09 2.704-.338 3.575-.728 1.053-.455 1.534-1.13 1.534-1.963 0-.702-.442-1.339-1.56-1.339-1.144 0-2.522.741-3.744 1.976a3.6 3.6 0 0 0-.56.715c-.077.13-.13.13-.298.091a9 9 0 0 1-.884-.35c-.13-.053-.182-.079-.182-.26.078-1.509.247-3.043.403-4.2.052-.39.117-.728.117-1.17m13.975-1.13c.156-.378.442-1.04.546-1.249.104-.208.169-.208.35-.169 1.379.26 3.342.793 4.629 1.365.208.091.234.156.156.325-.091.312-.325.845-.455 1.131-.065.156-.182.156-.312.091-1.521-.689-3.25-1.196-4.914-1.495m-.871 3.38c.208-.52.429-1.002.559-1.236.065-.143.143-.182.338-.13 1.378.3 2.873.754 3.965 1.261.208.091.234.182.169.377a8 8 0 0 1-.43 1.001c-.064.117-.116.17-.181.17a.3.3 0 0 1-.17-.053c-1.39-.663-2.768-1.066-4.25-1.39m-.208 3.86c.169-.403.429-.923.598-1.222.065-.117.143-.195.364-.156 1.976.3 4.147 1.014 6.227 2.028.143.065.22.17.13.351a10 10 0 0 1-.52 1.066c-.065.104-.117.156-.195.156a.4.4 0 0 1-.182-.065c-2.106-1.066-4.173-1.729-6.422-2.158m18.603-.026h.611c.52 0 1.092-.013 1.586-.013.221-.013.273.026.286.234.013.247.013.572 0 .82-.013.246-.052.26-.247.26-.585 0-1.209-.014-1.807-.014h-4.784c-.533 0-1.04 0-1.677.026-.143 0-.195-.065-.221-.26-.052-.273-.065-.689-.065-1.092.74.052 1.222.052 1.872.052h3.016l.442-3.159h-2.093c-.507 0-1.092.026-1.43.04-.156.012-.208-.027-.234-.248a16 16 0 0 1-.091-1.118c.87.04 1.26.065 1.807.065h1.794c.468 0 .585-.039.767-.117a.24.24 0 0 1 .143-.052c.065 0 .13.04.195.078.234.17.585.455.793.715q.117.117.117.234t-.117.234c-.169.182-.208.325-.26.65zm13.013-2.34h-4.68c-1.287 0-1.781.156-1.911.156-.156 0-.26-.078-.299-.273-.065-.299-.143-.91-.195-1.573.845.13 1.495.156 2.808.156h4.186c.988 0 1.989-.026 2.99-.039.195-.013.234.026.234.182.026.39.026.832 0 1.222 0 .156-.052.208-.234.195-.975-.013-1.937-.026-2.899-.026m5.837-1.508c.325-.52.533-.897.689-1.105.065-.09.13-.156.247-.13a9 9 0 0 1 2.496 1.274c.091.065.143.117.143.195a.4.4 0 0 1-.052.143c-.143.351-.364.69-.572.988-.065.078-.117.13-.169.13s-.091-.026-.156-.078c-.832-.61-1.677-1.04-2.626-1.417m1.573-3.055c.221-.338.468-.702.689-1.04.091-.156.169-.182.325-.104.832.338 1.729.82 2.444 1.443.078.052.104.117.104.17a.3.3 0 0 1-.052.168c-.182.325-.442.741-.663.975a.14.14 0 0 1-.13.078c-.065 0-.13-.039-.195-.09-.676-.56-1.69-1.223-2.522-1.6m-.546 7.41c.546-.104 1.001-.247 1.768-.637 1.235-.65 2.301-1.26 3.562-2.249a23.7 23.7 0 0 0 3.744-3.627c.078.572.182.897.377 1.456a.6.6 0 0 1 .065.247c0 .104-.039.195-.143.3-1.209 1.3-2.028 2.014-3.302 3.002-1.131.858-2.34 1.6-3.887 2.444-.312.17-.624.312-.754.442-.078.078-.143.104-.208.104-.091 0-.182-.052-.26-.156-.273-.273-.624-.78-.962-1.326m6.5-8.372.689-.48c.065-.053.117-.04.195.025.403.312.871.832 1.235 1.391.052.078.052.143-.039.208l-.546.403c-.091.065-.156.052-.221-.039-.39-.598-.806-1.092-1.313-1.508m1.196-.858.65-.468c.078-.052.117-.039.195.026.481.364.949.884 1.235 1.34.052.077.065.155-.039.233l-.52.403c-.104.078-.169.04-.221-.039a6.2 6.2 0 0 0-1.3-1.495m5.369 4.277c.442-.247.754-.39 1.027-.52.143-.065.234-.052.338.091.455.572.871 1.235 1.118 1.924.026.091.052.143.052.195 0 .078-.052.117-.156.182a5.4 5.4 0 0 1-.832.403c-.182.065-.26 0-.325-.182a7.7 7.7 0 0 0-1.222-2.093m2.613-.663c.52-.247.819-.39 1.04-.48.143-.066.234-.053.338.103.351.455.793 1.274 1.001 1.898.065.195.039.26-.13.351a5.4 5.4 0 0 1-.897.403c-.143.052-.195-.013-.26-.195-.299-.767-.598-1.39-1.092-2.08m4.095-.312c.546.17 1.131.403 1.456.624.104.078.169.143.169.221s-.039.143-.143.234c-.195.17-.286.43-.39.663-.559 1.326-1.235 2.51-1.963 3.458-.858 1.092-1.573 1.781-2.678 2.51-.104.077-.208.142-.312.142a.3.3 0 0 1-.208-.09c-.325-.26-.624-.404-1.105-.547 1.56-1.027 2.34-1.69 3.12-2.704.65-.845 1.378-2.119 1.755-3.133.169-.48.247-.767.299-1.378m10.439-1.209 2.34-.052c.338-.013.507-.065.65-.156a.26.26 0 0 1 .169-.052c.065 0 .13.026.208.078.325.208.624.455.884.702.117.104.169.208.169.3 0 .103-.065.194-.156.272a1.6 1.6 0 0 0-.429.56c-.871 1.767-1.703 3.028-2.574 4.016-1.118 1.261-2.665 2.522-3.952 3.237a.35.35 0 0 1-.208.065c-.104 0-.195-.052-.299-.143-.325-.26-.728-.455-1.235-.598 2.028-1.118 3.055-1.937 4.329-3.315 1.027-1.144 1.625-2.028 2.405-3.692l-3.146.091c-1.066 1.313-1.716 2.054-2.457 2.665-.091.091-.182.143-.273.143a.3.3 0 0 1-.195-.078 3.5 3.5 0 0 0-1.248-.559c1.69-1.378 2.691-2.587 3.497-3.86.429-.729.624-1.132.767-1.756.741.26 1.235.481 1.521.69.091.064.13.142.13.22s-.039.156-.143.221c-.13.078-.221.221-.325.351a55 55 0 0 1-.429.65m10.972-.728h3.575c.468 0 .702-.013.897-.117a.22.22 0 0 1 .143-.052c.078 0 .143.052.221.104.299.234.598.572.845.91.039.065.065.117.065.17 0 .077-.052.168-.169.26a2.4 2.4 0 0 0-.481.571c-.533.91-1.04 1.638-1.664 2.431a30.6 30.6 0 0 1 3.601 3.146c.065.065.104.13.104.182s-.026.117-.091.195a7 7 0 0 1-.871.884q-.078.078-.156.078c-.065 0-.117-.039-.182-.104a23.7 23.7 0 0 0-3.38-3.224c-1.469 1.534-2.951 2.64-4.368 3.432-.117.052-.208.104-.299.104a.29.29 0 0 1-.221-.117c-.286-.35-.663-.61-1.092-.845 2.028-1.027 3.237-1.95 4.576-3.315.936-.975 1.651-1.898 2.444-3.263l-3.354.013c-.676 0-1.352.026-2.054.078-.104.013-.143-.078-.169-.22-.065-.274-.117-.898-.117-1.353.702.052 1.352.052 2.197.052m15.028.728 2.34-.052c.338-.013.507-.065.65-.156a.26.26 0 0 1 .169-.052c.065 0 .13.026.208.078.325.208.624.455.884.702.117.104.169.208.169.3 0 .103-.065.194-.156.272a1.6 1.6 0 0 0-.429.56c-.871 1.767-1.703 3.028-2.574 4.016-1.118 1.261-2.665 2.522-3.952 3.237a.35.35 0 0 1-.208.065c-.104 0-.195-.052-.299-.143-.325-.26-.728-.455-1.235-.598 2.028-1.118 3.055-1.937 4.329-3.315 1.027-1.144 1.625-2.028 2.405-3.692l-3.146.091c-1.066 1.313-1.716 2.054-2.457 2.665-.091.091-.182.143-.273.143a.3.3 0 0 1-.195-.078 3.5 3.5 0 0 0-1.248-.559c1.69-1.378 2.691-2.587 3.497-3.86.429-.729.624-1.132.767-1.756.741.26 1.235.481 1.521.69.091.064.13.142.13.22s-.039.156-.143.221c-.13.078-.221.221-.325.351a55 55 0 0 1-.429.65m14.924 4.29h-4.68c-1.287 0-1.781.156-1.911.156-.156 0-.26-.078-.299-.273-.065-.299-.143-.91-.195-1.573.845.13 1.495.156 2.808.156h4.186c.988 0 1.989-.026 2.99-.039.195-.013.234.026.234.182.026.39.026.832 0 1.222 0 .156-.052.208-.234.195-.975-.013-1.937-.026-2.899-.026m12.376-3.068v4.342a13 13 0 0 0 1.846-1.209c.78-.598 1.547-1.287 2.275-2.21.052.455.182.884.403 1.313.039.091.078.156.078.221 0 .091-.052.182-.195.325a16.4 16.4 0 0 1-1.924 1.703 22 22 0 0 1-2.314 1.56c-.234.156-.26.182-.377.273a.4.4 0 0 1-.26.104.55.55 0 0 1-.273-.104c-.286-.195-.585-.533-.78-.793-.078-.117-.117-.195-.117-.273a.4.4 0 0 1 .052-.195c.091-.169.078-.325.078-.988v-4.069c0-1.13 0-1.664-.13-2.262.52.065 1.235.156 1.625.273.169.04.234.117.234.221a.8.8 0 0 1-.104.325c-.117.247-.117.507-.117 1.443m-4.537-1.443c.741.091 1.339.182 1.651.286.221.065.247.221.169.403-.143.286-.156.572-.156.884-.026 1.625-.273 2.86-.702 3.822-.338.793-.91 1.638-1.846 2.444-.13.104-.234.17-.338.17-.078 0-.156-.04-.247-.105a4.6 4.6 0 0 0-1.105-.546c1.014-.767 1.703-1.56 2.158-2.587.364-.884.533-1.599.546-3.679 0-.494-.026-.702-.13-1.092"/></svg>