<svg xmlns="http://www.w3.org/2000/svg" width="91" height="40" fill="none"><path fill="#DC4F5A" d="M0 0h91v40H0z"/><path fill="#fff" d="M47.478 17.86q1.38 0 2.01.6.64.59.64 1.63 0 .47-.14.9-.14.42-.47.76-.32.33-.85.52t-1.31.19h-.65V25h-1.51v-7.14zm-.08 1.24h-.69v2.12h.5q.43 0 .74-.11a.96.96 0 0 0 .48-.35q.17-.24.17-.62 0-.53-.29-.78-.29-.26-.91-.26m8.92 3.16q0 .68-.19 1.21-.18.53-.53.9-.34.36-.83.55-.491.18-1.11.18-.57 0-1.06-.18a2.35 2.35 0 0 1-.83-.55 2.7 2.7 0 0 1-.55-.9 3.6 3.6 0 0 1-.19-1.21q0-.91.32-1.53.319-.63.92-.96.6-.33 1.42-.33.769 0 1.36.33.589.33.93.96.34.62.34 1.53m-3.77 0q0 .54.11.91.12.36.37.55.25.18.65.18t.64-.18q.249-.19.36-.55.12-.37.12-.91t-.12-.9q-.111-.36-.36-.54-.25-.18-.65-.18-.59 0-.86.41-.26.4-.26 1.21m7.22 2.84q-.81 0-1.38-.29-.57-.3-.87-.92t-.3-1.59q0-1 .34-1.63t.94-.93q.61-.3 1.4-.3a3.8 3.8 0 0 1 1.7.37l-.44 1.15a7 7 0 0 0-.66-.23q-.3-.09-.6-.09-.39 0-.65.19-.26.18-.39.55-.12.36-.12.91 0 .54.13.9.14.35.4.53.261.17.63.17.47 0 .83-.12.36-.13.7-.35v1.27q-.339.22-.72.31-.37.1-.94.1m4.407-4.3q0 .31-.03.62-.02.3-.05.61h.02l.2-.28.22-.28q.11-.14.23-.27l1.53-1.66h1.68l-2.17 2.37 2.3 3.09h-1.72l-1.57-2.21-.64.51V25h-1.49v-7.6h1.49zm6.961-1.36q.76 0 1.3.29.55.29.85.84t.3 1.35v.72h-3.52q.02.63.37.99.36.36.99.36.531 0 .96-.1.43-.11.89-.33v1.15a3.4 3.4 0 0 1-.85.29q-.44.1-1.07.1-.82 0-1.45-.3a2.3 2.3 0 0 1-.99-.93q-.36-.62-.36-1.56 0-.96.32-1.59.33-.64.91-.96t1.35-.32m.01 1.06a1 1 0 0 0-.72.28q-.279.28-.33.87h2.09q0-.33-.12-.59a.9.9 0 0 0-.34-.41q-.23-.15-.58-.15m5.949 3.41q.249 0 .48-.05t.46-.12v1.11q-.24.1-.6.17a3.5 3.5 0 0 1-.77.08 2.3 2.3 0 0 1-.88-.16 1.28 1.28 0 0 1-.61-.55q-.22-.4-.22-1.1v-2.63h-.71v-.63l.82-.5.43-1.15h.95v1.16h1.53v1.12h-1.53v2.63q0 .31.18.47.18.15.47.15M32.579 10H15.083C13.947 10 13 10.87 13 12.007v6.476c0 5.87 4.847 10.755 10.83 10.755 5.946 0 10.756-4.885 10.756-10.755v-6.476A1.996 1.996 0 0 0 32.579 10m-2.613 8.028-5.15 4.848c-.266.303-.682.416-.985.416-.379 0-.758-.113-1.06-.416l-5.075-4.848c-.53-.568-.606-1.514 0-2.12.568-.53 1.515-.606 2.083 0l4.052 3.9 4.128-3.9c.53-.606 1.477-.53 2.007 0 .53.606.53 1.552 0 2.12"/></svg>