<svg xmlns="http://www.w3.org/2000/svg" width="65" height="40" fill="none"><path fill="#DC4F5A" d="M0 0h65v40H0z"/><path fill="#fff" d="M40.579 10H23.083C21.947 10 21 10.87 21 12.007v6.476c0 5.87 4.847 10.755 10.83 10.755 5.946 0 10.756-4.885 10.756-10.755v-6.476A1.996 1.996 0 0 0 40.579 10m-2.613 8.028-5.15 4.848c-.266.303-.682.416-.985.416-.379 0-.758-.113-1.06-.416l-5.075-4.848c-.53-.568-.606-1.514 0-2.12.568-.53 1.515-.606 2.083 0l4.052 3.9 4.128-3.9c.53-.606 1.476-.53 2.007 0 .53.606.53 1.552 0 2.12"/></svg>