<svg xmlns="http://www.w3.org/2000/svg" width="88" height="40" fill="none"><path fill="#4A9FEB" d="M0 0h88v40H0z"/><path fill="#fff" d="M44.465 25h-1.51v-5.88h-1.94v-1.26h5.39v1.26h-1.94zm6.796-1.91-.12-.5q-.07-.34-.16-.72-.09-.39-.17-.71-.08-.33-.11-.48h-.04q-.03.15-.11.48a63 63 0 0 1-.33 1.43q-.081.34-.12.52L49.66 25h-1.6l-1.55-5.46h1.48l.63 2.42q.069.25.12.6.06.35.11.68.05.32.07.51h.04q.01-.14.04-.37.03-.24.07-.49.05-.25.08-.45.039-.21.06-.28l.67-2.62h1.64l.64 2.62q.039.14.09.45.06.31.1.63.05.32.05.51h.04q.02-.17.07-.49.05-.33.11-.69.07-.36.14-.61l.65-2.42h1.46L53.3 25h-1.62zm5.984-3.55V25h-1.49v-5.46zm-.74-2.14q.33 0 .57.16.24.15.24.57 0 .41-.24.57t-.57.16q-.34 0-.58-.16-.23-.16-.23-.57 0-.42.23-.57.24-.16.58-.16m4.597 6.51q.25 0 .48-.05t.46-.12v1.11q-.24.1-.6.17a3.5 3.5 0 0 1-.77.08 2.3 2.3 0 0 1-.88-.16 1.28 1.28 0 0 1-.61-.55q-.22-.4-.22-1.1v-2.63h-.71v-.63l.82-.5.43-1.15h.95v1.16h1.53v1.12h-1.53v2.63q0 .31.18.47.18.15.47.15m4.336 0q.25 0 .48-.05t.46-.12v1.11q-.24.1-.6.17a3.5 3.5 0 0 1-.77.08 2.3 2.3 0 0 1-.88-.16 1.28 1.28 0 0 1-.61-.55q-.22-.4-.22-1.1v-2.63h-.71v-.63l.82-.5.43-1.15h.95v1.16h1.53v1.12h-1.53v2.63q0 .31.18.47.18.15.47.15m4.286-4.47q.76 0 1.3.29.55.29.85.84t.3 1.35v.72h-3.52q.02.63.37.99.36.36.99.36.53 0 .96-.1.43-.11.89-.33v1.15a3.4 3.4 0 0 1-.85.29q-.44.1-1.07.1-.82 0-1.45-.3a2.3 2.3 0 0 1-.99-.93q-.36-.62-.36-1.56 0-.96.32-1.59.33-.64.91-.96t1.35-.32m.01 1.06a1 1 0 0 0-.72.28q-.28.28-.33.87h2.09q0-.33-.12-.59a.9.9 0 0 0-.34-.41q-.23-.15-.58-.15m6.698-1.06q.11 0 .26.01t.24.03l-.11 1.4a1 1 0 0 0-.21-.03 1.5 1.5 0 0 0-.23-.02q-.29 0-.56.08-.27.07-.49.23-.21.16-.34.43-.12.26-.12.65V25h-1.49v-5.46h1.13l.22.92h.07q.16-.28.4-.51t.55-.37q.32-.14.68-.14M19.601 28.06c7.922 0 12.254-6.563 12.254-12.254q0-.28-.013-.556a8.8 8.8 0 0 0 2.149-2.23 8.6 8.6 0 0 1-2.474.678 4.32 4.32 0 0 0 1.894-2.383 8.6 8.6 0 0 1-2.734 1.046 4.307 4.307 0 0 0-7.339 3.928 12.23 12.23 0 0 1-8.877-4.5 4.3 4.3 0 0 0-.583 2.164c0 1.494.76 2.813 1.916 3.585a4.3 4.3 0 0 1-1.95-.539l-.001.055a4.31 4.31 0 0 0 3.455 4.222 4.3 4.3 0 0 1-1.945.074 4.31 4.31 0 0 0 4.023 2.991 8.64 8.64 0 0 1-5.349 1.844q-.521 0-1.027-.06a12.2 12.2 0 0 0 6.601 1.934"/></svg>