<svg xmlns="http://www.w3.org/2000/svg" width="65" height="40" fill="none"><path fill="#4A9FEB" d="M0 0h65v40H0z"/><path fill="#fff" d="M28.606 28.06c7.921 0 12.253-6.563 12.253-12.254q0-.28-.012-.556a8.8 8.8 0 0 0 2.148-2.23 8.6 8.6 0 0 1-2.473.678 4.32 4.32 0 0 0 1.894-2.383 8.6 8.6 0 0 1-2.735 1.046 4.307 4.307 0 0 0-7.339 3.928 12.23 12.23 0 0 1-8.876-4.5 4.3 4.3 0 0 0-.584 2.164c0 1.494.76 2.813 1.917 3.585a4.3 4.3 0 0 1-1.95-.539q-.002.027-.002.055a4.31 4.31 0 0 0 3.455 4.222 4.3 4.3 0 0 1-1.944.074 4.31 4.31 0 0 0 4.023 2.991 8.64 8.64 0 0 1-5.35 1.844q-.52 0-1.026-.06a12.2 12.2 0 0 0 6.601 1.934"/></svg>